<?xml version="1.0" encoding="UTF-8"?><svg xmlns="http://www.w3.org/2000/svg" xmlns:xlink="http://www.w3.org/1999/xlink" fill-opacity="1" color-rendering="auto" color-interpolation="auto" text-rendering="auto" stroke="black" stroke-linecap="square" width="909" stroke-miterlimit="10" shape-rendering="auto" stroke-opacity="1" fill="black" stroke-dasharray="none" font-weight="normal" stroke-width="1" height="506" font-family="'Dialog'" font-style="normal" stroke-linejoin="miter" font-size="12px" stroke-dashoffset="0" image-rendering="auto">
  <!--Generated by ySVG 2.5-->
  <defs id="genericDefs"/>
  <g>
    <defs id="defs1">
      <clipPath clipPathUnits="userSpaceOnUse" id="clipPath1">
        <path d="M0 0 L909 0 L909 506 L0 506 L0 0 Z"/>
      </clipPath>
      <clipPath clipPathUnits="userSpaceOnUse" id="clipPath2">
        <path d="M96 31 L1005 31 L1005 537 L96 537 L96 31 Z"/>
      </clipPath>
    </defs>
    <g fill="rgb(0,204,255)" text-rendering="geometricPrecision" shape-rendering="geometricPrecision" transform="matrix(1,0,0,1,-96,-31)" stroke="rgb(0,204,255)">
      <rect x="469" width="62" height="30" y="235" clip-path="url(#clipPath2)" stroke="none"/>
    </g>
    <g fill="blue" text-rendering="geometricPrecision" shape-rendering="geometricPrecision" transform="matrix(1,0,0,1,-96,-31)" stroke-linecap="butt" stroke="blue">
      <rect fill="none" x="469" width="62" height="30" y="235" clip-path="url(#clipPath2)"/>
    </g>
    <g text-rendering="geometricPrecision" stroke-miterlimit="1.45" shape-rendering="geometricPrecision" font-family="sans-serif" transform="matrix(1,0,0,1,-96,-31)" stroke-linecap="butt">
      <text x="488.668" xml:space="preserve" y="254.7139" clip-path="url(#clipPath2)" stroke="none">INIT</text>
    </g>
    <g fill="rgb(255,140,0)" text-rendering="geometricPrecision" shape-rendering="geometricPrecision" transform="matrix(1,0,0,1,-96,-31)" stroke="rgb(255,140,0)">
      <rect x="164" width="118" height="30" y="235" clip-path="url(#clipPath2)" stroke="none"/>
      <rect x="164" stroke-linecap="butt" y="235" clip-path="url(#clipPath2)" fill="none" width="118" height="30"/>
    </g>
    <g text-rendering="geometricPrecision" stroke-miterlimit="1.45" shape-rendering="geometricPrecision" font-family="sans-serif" transform="matrix(1,0,0,1,-96,-31)" stroke-linecap="butt">
      <text x="181.3281" xml:space="preserve" y="254.7139" clip-path="url(#clipPath2)" stroke="none">DRAG_FRAME</text>
    </g>
    <g fill="rgb(255,140,0)" text-rendering="geometricPrecision" shape-rendering="geometricPrecision" transform="matrix(1,0,0,1,-96,-31)" stroke="rgb(255,140,0)">
      <rect x="656" width="288" height="30" y="435" clip-path="url(#clipPath2)" stroke="none"/>
      <rect x="656" stroke-linecap="butt" y="435" clip-path="url(#clipPath2)" fill="none" width="288" height="30"/>
    </g>
    <g text-rendering="geometricPrecision" stroke-miterlimit="1.45" shape-rendering="geometricPrecision" font-family="sans-serif" transform="matrix(1,0,0,1,-96,-31)" stroke-linecap="butt">
      <text x="675.3008" xml:space="preserve" y="454.7139" clip-path="url(#clipPath2)" stroke="none">SELECT_EDGE_OR_MODIFY_BREAKPOINT</text>
    </g>
    <g fill="rgb(255,140,0)" text-rendering="geometricPrecision" shape-rendering="geometricPrecision" transform="matrix(1,0,0,1,-96,-31)" stroke="rgb(255,140,0)">
      <rect x="418" width="164" height="30" y="435" clip-path="url(#clipPath2)" stroke="none"/>
      <rect x="418" stroke-linecap="butt" y="435" clip-path="url(#clipPath2)" fill="none" width="164" height="30"/>
    </g>
    <g text-rendering="geometricPrecision" stroke-miterlimit="1.45" shape-rendering="geometricPrecision" font-family="sans-serif" transform="matrix(1,0,0,1,-96,-31)" stroke-linecap="butt">
      <text x="440.6533" xml:space="preserve" y="454.7139" clip-path="url(#clipPath2)" stroke="none">DRAG_BREAKPOINT</text>
    </g>
    <g fill="rgb(255,140,0)" text-rendering="geometricPrecision" shape-rendering="geometricPrecision" transform="matrix(1,0,0,1,-96,-31)" stroke="rgb(255,140,0)">
      <rect x="568" width="164" height="30" y="85" clip-path="url(#clipPath2)" stroke="none"/>
      <rect x="568" stroke-linecap="butt" y="85" clip-path="url(#clipPath2)" fill="none" width="164" height="30"/>
    </g>
    <g text-rendering="geometricPrecision" stroke-miterlimit="1.45" shape-rendering="geometricPrecision" font-family="sans-serif" transform="matrix(1,0,0,1,-96,-31)" stroke-linecap="butt">
      <text x="595.3203" xml:space="preserve" y="104.7139" clip-path="url(#clipPath2)" stroke="none">DRAG_SELECTION</text>
    </g>
    <g fill="rgb(51,102,153)" text-rendering="geometricPrecision" shape-rendering="geometricPrecision" transform="matrix(1,0,0,1,-96,-31)" stroke-linecap="butt" stroke="rgb(51,102,153)">
      <path fill="none" d="M468.9663 240 L400 240 L400 204 L480 204 L480 226.9697" clip-path="url(#clipPath2)"/>
      <path d="M480 234.9697 L485 222.9697 L480 225.9697 L475 222.9697 Z" clip-path="url(#clipPath2)" stroke="none"/>
    </g>
    <g text-rendering="geometricPrecision" stroke-miterlimit="1.45" shape-rendering="geometricPrecision" font-family="sans-serif" transform="matrix(1,0,0,1,-96,-31)" stroke-linecap="butt">
      <text x="303.1221" xml:space="preserve" y="195.2139" clip-path="url(#clipPath2)" stroke="none">mPress, elem is node / select node</text>
    </g>
    <g fill="rgb(51,102,153)" text-rendering="geometricPrecision" shape-rendering="geometricPrecision" transform="matrix(1,0,0,1,-96,-31)" stroke-linecap="butt" stroke="rgb(51,102,153)">
      <path fill="none" d="M480 265 L480 350 L223 350 L223 273" clip-path="url(#clipPath2)"/>
      <path d="M223 265 L218 277 L223 274 L228 277 Z" clip-path="url(#clipPath2)" stroke="none"/>
    </g>
    <g text-rendering="geometricPrecision" stroke-miterlimit="1.45" shape-rendering="geometricPrecision" font-family="sans-serif" transform="matrix(1,0,0,1,-96,-31)" stroke-linecap="butt">
      <text x="307.8193" xml:space="preserve" y="336.2139" clip-path="url(#clipPath2)" stroke="none">mPress, elem is null</text>
    </g>
    <g fill="rgb(51,102,153)" text-rendering="geometricPrecision" shape-rendering="geometricPrecision" transform="matrix(1,0,0,1,-96,-31)" stroke-linecap="butt" stroke="rgb(51,102,153)">
      <path fill="none" d="M163.9648 250 L128 250 L128 199 L223 199 L223 226.9648" clip-path="url(#clipPath2)"/>
      <path d="M223 234.9648 L228 222.9648 L223 225.9648 L218 222.9648 Z" clip-path="url(#clipPath2)" stroke="none"/>
    </g>
    <g text-rendering="geometricPrecision" stroke-miterlimit="1.45" shape-rendering="geometricPrecision" font-family="sans-serif" transform="matrix(1,0,0,1,-96,-31)" stroke-linecap="butt">
      <text x="125.4873" xml:space="preserve" y="185.2139" clip-path="url(#clipPath2)" stroke="none">mDrag / draw frame</text>
    </g>
    <g fill="rgb(51,102,153)" text-rendering="geometricPrecision" shape-rendering="geometricPrecision" transform="matrix(1,0,0,1,-96,-31)" stroke-linecap="butt" stroke="rgb(51,102,153)">
      <path fill="none" d="M282 250 L460.9543 250" clip-path="url(#clipPath2)"/>
      <path d="M468.9543 250 L456.9543 245 L459.9543 250 L456.9543 255 Z" clip-path="url(#clipPath2)" stroke="none"/>
    </g>
    <g text-rendering="geometricPrecision" stroke-miterlimit="1.45" shape-rendering="geometricPrecision" font-family="sans-serif" transform="matrix(1,0,0,1,-96,-31)" stroke-linecap="butt">
      <text x="291.4707" xml:space="preserve" y="277.2139" clip-path="url(#clipPath2)" stroke="none">mRel / select elements in frame</text>
    </g>
    <g fill="rgb(51,102,153)" text-rendering="geometricPrecision" shape-rendering="geometricPrecision" transform="matrix(1,0,0,1,-96,-31)" stroke-linecap="butt" stroke="rgb(51,102,153)">
      <path fill="none" d="M531 250 L859 250 L859 426.9609" clip-path="url(#clipPath2)"/>
      <path d="M859 434.9609 L864 422.9609 L859 425.9609 L854 422.9609 Z" clip-path="url(#clipPath2)" stroke="none"/>
    </g>
    <g text-rendering="geometricPrecision" stroke-miterlimit="1.45" shape-rendering="geometricPrecision" font-family="sans-serif" transform="matrix(1,0,0,1,-96,-31)" stroke-linecap="butt">
      <text x="871.8115" xml:space="preserve" y="352.2139" clip-path="url(#clipPath2)" stroke="none">mPress, elem is edge</text>
    </g>
    <g fill="rgb(51,102,153)" text-rendering="geometricPrecision" shape-rendering="geometricPrecision" transform="matrix(1,0,0,1,-96,-31)" stroke-linecap="butt" stroke="rgb(51,102,153)">
      <path fill="none" d="M721 434.9807 L721 260 L539 260" clip-path="url(#clipPath2)"/>
      <path d="M531 260 L543 265 L540 260 L543 255 Z" clip-path="url(#clipPath2)" stroke="none"/>
    </g>
    <g text-rendering="geometricPrecision" stroke-miterlimit="1.45" shape-rendering="geometricPrecision" font-family="sans-serif" transform="matrix(1,0,0,1,-96,-31)" stroke-linecap="butt">
      <text x="729.8096" xml:space="preserve" y="354.2139" clip-path="url(#clipPath2)" stroke="none">mRel / select edge</text>
    </g>
    <g fill="rgb(51,102,153)" text-rendering="geometricPrecision" shape-rendering="geometricPrecision" transform="matrix(1,0,0,1,-96,-31)" stroke-linecap="butt" stroke="rgb(51,102,153)">
      <path fill="none" d="M655.9639 450 L590 450" clip-path="url(#clipPath2)"/>
      <path d="M582 450 L594 455 L591 450 L594 445 Z" clip-path="url(#clipPath2)" stroke="none"/>
    </g>
    <g text-rendering="geometricPrecision" stroke-miterlimit="1.45" shape-rendering="geometricPrecision" font-family="sans-serif" transform="matrix(1,0,0,1,-96,-31)" stroke-linecap="butt">
      <text x="556.1338" xml:space="preserve" y="425.2139" clip-path="url(#clipPath2)" stroke="none">mDrag / create breakpoint</text>
    </g>
    <g fill="rgb(51,102,153)" text-rendering="geometricPrecision" shape-rendering="geometricPrecision" transform="matrix(1,0,0,1,-96,-31)" stroke-linecap="butt" stroke="rgb(51,102,153)">
      <path fill="none" d="M500 465 L500 496 L350 496 L350 450 L409.9668 450" clip-path="url(#clipPath2)"/>
      <path d="M417.9668 450 L405.9668 445 L408.9668 450 L405.9668 455 Z" clip-path="url(#clipPath2)" stroke="none"/>
    </g>
    <g text-rendering="geometricPrecision" stroke-miterlimit="1.45" shape-rendering="geometricPrecision" font-family="sans-serif" transform="matrix(1,0,0,1,-96,-31)" stroke-linecap="butt">
      <text x="347.7969" xml:space="preserve" y="517.2139" clip-path="url(#clipPath2)" stroke="none">mDrag / translate breakpoint</text>
    </g>
    <g fill="rgb(51,102,153)" text-rendering="geometricPrecision" shape-rendering="geometricPrecision" transform="matrix(1,0,0,1,-96,-31)" stroke-linecap="butt" stroke="rgb(51,102,153)">
      <path fill="none" d="M500 434.9585 L500 273" clip-path="url(#clipPath2)"/>
      <path d="M500 265 L495 277 L500 274 L505 277 Z" clip-path="url(#clipPath2)" stroke="none"/>
    </g>
    <g text-rendering="geometricPrecision" stroke-miterlimit="1.45" shape-rendering="geometricPrecision" font-family="sans-serif" transform="matrix(1,0,0,1,-96,-31)" stroke-linecap="butt">
      <text x="509.8154" xml:space="preserve" y="354.2139" clip-path="url(#clipPath2)" stroke="none">mRel / commit translation</text>
    </g>
    <g fill="rgb(51,102,153)" text-rendering="geometricPrecision" shape-rendering="geometricPrecision" transform="matrix(1,0,0,1,-96,-31)" stroke-linecap="butt" stroke="rgb(51,102,153)">
      <path fill="none" d="M500 234.967 L500 100 L559.9668 100" clip-path="url(#clipPath2)"/>
      <path d="M567.9668 100 L555.9668 95 L558.9668 100 L555.9668 105 Z" clip-path="url(#clipPath2)" stroke="none"/>
    </g>
    <g text-rendering="geometricPrecision" stroke-miterlimit="1.45" shape-rendering="geometricPrecision" font-family="sans-serif" transform="matrix(1,0,0,1,-96,-31)" stroke-linecap="butt">
      <text x="384.1123" xml:space="preserve" y="78.2139" clip-path="url(#clipPath2)" stroke="none">mDrag, elem in selection / translate selection</text>
    </g>
    <g fill="rgb(51,102,153)" text-rendering="geometricPrecision" shape-rendering="geometricPrecision" transform="matrix(1,0,0,1,-96,-31)" stroke-linecap="butt" stroke="rgb(51,102,153)">
      <path fill="none" d="M650 84.9746 L650 72 L800 72 L800 100 L740 100" clip-path="url(#clipPath2)"/>
      <path d="M732 100 L744 105 L741 100 L744 95 Z" clip-path="url(#clipPath2)" stroke="none"/>
    </g>
    <g text-rendering="geometricPrecision" stroke-miterlimit="1.45" shape-rendering="geometricPrecision" font-family="sans-serif" transform="matrix(1,0,0,1,-96,-31)" stroke-linecap="butt">
      <text x="652" xml:space="preserve" y="61.3805" clip-path="url(#clipPath2)" stroke="none">mDrag / translate selection</text>
    </g>
    <g fill="rgb(51,102,153)" text-rendering="geometricPrecision" shape-rendering="geometricPrecision" transform="matrix(1,0,0,1,-96,-31)" stroke-linecap="butt" stroke="rgb(51,102,153)">
      <path fill="none" d="M650 115 L650 240 L539 240" clip-path="url(#clipPath2)"/>
      <path d="M531 240 L543 245 L540 240 L543 235 Z" clip-path="url(#clipPath2)" stroke="none"/>
    </g>
    <g text-rendering="geometricPrecision" stroke-miterlimit="1.45" shape-rendering="geometricPrecision" font-family="sans-serif" transform="matrix(1,0,0,1,-96,-31)" stroke-linecap="butt">
      <text x="659.8154" xml:space="preserve" y="180.2139" clip-path="url(#clipPath2)" stroke="none">mRel / commit translation</text>
      <path fill="none" d="M141 72 L174.5 72 L200 72" clip-path="url(#clipPath2)"/>
      <path d="M208 72 L196 67 L199 72 L196 77 Z" clip-path="url(#clipPath2)" stroke="none"/>
      <text x="141.3105" xml:space="preserve" y="60.2139" clip-path="url(#clipPath2)" stroke="none">event / action</text>
    </g>
  </g>
</svg>
